<?xml version="1.0" standalone="no"?>
<!DOCTYPE svg PUBLIC "-//W3C//DTD SVG 20010904//EN"
 "http://www.w3.org/TR/2001/REC-SVG-20010904/DTD/svg10.dtd">
<svg version="1.0" xmlns="http://www.w3.org/2000/svg"
 width="512.000000pt" height="512.000000pt" viewBox="0 0 512.000000 512.000000"
 preserveAspectRatio="xMidYMid meet">

<g transform="translate(0.000000,512.000000) scale(0.100000,-0.100000)"
fill="#000000" stroke="none">
<path d="M310 4546 c-150 -32 -266 -151 -299 -304 -16 -75 -16 -3289 0 -3364
34 -158 157 -278 313 -307 84 -15 4388 -15 4471 0 158 29 281 150 314 307 16
75 16 3289 0 3364 -33 157 -156 278 -314 307 -88 16 -4410 14 -4485 -3z m4489
-152 c68 -20 131 -82 154 -149 13 -36 17 -84 17 -187 l0 -138 -2410 0 -2410 0
0 138 c0 167 13 216 76 278 78 79 -118 73 2330 73 1960 1 2196 -1 2243 -15z
m171 -2047 c0 -1601 6 -1482 -76 -1563 -80 -80 119 -74 -2334 -74 -2453 0
-2254 -6 -2334 74 -82 81 -76 -38 -76 1563 l0 1423 2410 0 2410 0 0 -1423z"/>
<path d="M365 4228 c-50 -29 -58 -75 -20 -113 33 -34 77 -33 104 1 12 15 21
37 21 49 0 49 -64 87 -105 63z"/>
<path d="M604 4229 c-22 -11 -44 -48 -44 -75 0 -25 47 -64 78 -64 35 0 72 37
72 72 0 52 -60 89 -106 67z"/>
<path d="M843 4228 c-12 -6 -27 -23 -33 -37 -30 -74 64 -136 118 -78 55 59
-13 151 -85 115z"/>
<path d="M1163 4228 c-48 -23 -51 -103 -4 -127 28 -15 3094 -15 3122 0 48 25
44 105 -7 128 -34 15 -3079 15 -3111 -1z"/>
<path d="M4533 4230 c-46 -19 -57 -83 -20 -118 21 -20 34 -22 126 -22 56 0
111 5 121 10 50 27 49 100 0 125 -32 17 -189 20 -227 5z"/>
<path d="M2428 2870 c-61 -11 -142 -55 -180 -99 -17 -19 -43 -60 -57 -91 l-26
-55 0 -305 0 -305 28 -61 c35 -76 84 -125 162 -161 57 -27 67 -28 205 -28 138
0 148 1 205 28 78 36 127 85 162 161 l28 61 0 305 0 305 -26 55 c-37 79 -81
125 -154 161 -58 28 -73 31 -182 34 -65 2 -139 0 -165 -5z m293 -166 c42 -25
68 -61 79 -110 12 -51 12 -497 0 -548 -11 -49 -37 -85 -81 -111 -29 -17 -52
-20 -159 -20 -140 0 -175 12 -217 74 -30 45 -35 102 -31 376 3 219 5 243 23
274 44 74 95 92 252 87 77 -3 110 -8 134 -22z"/>
<path d="M1467 2853 c-9 -10 -74 -188 -143 -397 -118 -354 -126 -382 -113
-406 27 -46 47 -50 306 -50 l241 0 4 -95 c4 -109 21 -138 79 -138 54 0 69 29
69 138 l0 92 62 6 c70 6 98 28 98 76 0 49 -22 65 -92 71 l-63 5 -5 343 c-5
325 -6 344 -24 358 -29 21 -80 18 -102 -7 -18 -20 -19 -43 -22 -360 l-3 -339
-184 0 c-143 0 -185 3 -185 13 0 7 45 147 100 312 55 165 100 312 100 327 0
58 -82 92 -123 51z"/>
<path d="M3305 2846 c-22 -33 -255 -735 -255 -767 0 -15 9 -37 19 -50 19 -24
20 -24 280 -27 l261 -3 0 -94 c0 -109 15 -138 69 -138 58 0 75 29 79 137 l4
94 55 4 c64 6 96 31 96 77 0 51 -27 71 -94 71 l-58 0 -3 339 c-3 317 -4 340
-22 360 -22 25 -73 28 -102 7 -18 -14 -19 -33 -24 -358 l-5 -343 -187 -3
c-104 -1 -188 1 -188 5 0 4 47 150 105 324 66 197 103 324 99 335 -14 38 -37
54 -75 54 -30 0 -42 -6 -54 -24z"/>
</g>
</svg>
